<svg width="200" height="200" viewBox="0 0 200 200" fill="none" xmlns="http://www.w3.org/2000/svg">
<path d="M45.303 43.82H67.423L108.661 156H86.225L75.797 128.034H36.613L26.343 156H3.90699L45.303 43.82ZM71.847 112.708L56.363 66.414L40.247 112.708H71.847ZM178.511 73.208C177.563 72.1547 175.561 70.7853 172.507 69.1C169.452 67.3093 165.765 65.7293 161.447 64.36C157.233 62.8853 152.862 62.148 148.333 62.148C136.43 62.148 130.479 66.3613 130.479 74.788C130.479 77.8427 131.427 80.2653 133.323 82.056C135.219 83.8467 138.063 85.374 141.855 86.638C145.647 87.902 150.387 89.2713 156.075 90.746C163.448 92.642 169.821 94.854 175.193 97.382C180.67 99.91 184.831 103.281 187.675 107.494C190.624 111.602 192.099 117.079 192.099 123.926C192.099 131.931 190.15 138.409 186.253 143.36C182.461 148.205 177.405 151.734 171.085 153.946C164.765 156.158 157.918 157.264 150.545 157.264C142.118 157.264 133.744 156 125.423 153.472C117.207 150.839 109.886 147.257 103.461 142.728L113.099 123.926C114.047 124.874 115.732 126.138 118.155 127.718C120.577 129.193 123.527 130.72 127.003 132.3C130.479 133.775 134.271 135.039 138.379 136.092C142.487 137.145 146.647 137.672 150.861 137.672C162.869 137.672 168.873 133.827 168.873 126.138C168.873 122.873 167.661 120.239 165.239 118.238C162.816 116.237 159.393 114.551 154.969 113.182C150.65 111.813 145.594 110.285 139.801 108.6C132.638 106.599 126.687 104.387 121.947 101.964C117.312 99.436 113.836 96.3287 111.519 92.642C109.201 88.85 108.043 84.0573 108.043 78.264C108.043 70.5747 109.833 64.1493 113.415 58.988C117.101 53.7213 122.052 49.7713 128.267 47.138C134.481 44.3993 141.381 43.03 148.965 43.03C156.759 43.03 164.027 44.294 170.769 46.822C177.51 49.35 183.303 52.2467 188.149 55.512L178.511 73.208Z" fill="url(#paint0_linear)"/>
<defs>
<linearGradient id="paint0_linear" x1="184.483" y1="33.3333" x2="25.6094" y2="157.684" gradientUnits="userSpaceOnUse">
<stop stop-color="#E724A0"/>
<stop offset="1" stop-color="#8025F2"/>
</linearGradient>
</defs>
</svg>
