<svg width="117" height="33" viewBox="0 0 117 33" fill="none" xmlns="http://www.w3.org/2000/svg">
<path d="M7.824 9.52H2.96L2.064 12H0.528L4.56 0.912H6.24L10.256 12H8.72L7.824 9.52ZM7.408 8.336L5.392 2.704L3.376 8.336H7.408ZM13.4693 10.816H17.3733V12H12.0133V0.848H13.4693V10.816ZM20.3755 2.032V5.76H24.4395V6.96H20.3755V10.8H24.9195V12H18.9195V0.832H24.9195V2.032H20.3755ZM31.6826 6.432L35.1066 12H33.4586L30.7866 7.648L28.2426 12H26.6266L30.0346 6.432L26.6106 0.848H28.2426L30.9306 5.216L33.4906 0.848H35.1226L31.6826 6.432ZM45.1498 12.112C44.3284 12.112 43.5924 11.9787 42.9418 11.712C42.2911 11.4453 41.7684 11.0507 41.3738 10.528C40.9898 10.0053 40.7871 9.376 40.7658 8.64H43.6778C43.7204 9.056 43.8644 9.376 44.1098 9.6C44.3551 9.81333 44.6751 9.92 45.0698 9.92C45.4751 9.92 45.7951 9.82933 46.0298 9.648C46.2644 9.456 46.3818 9.19467 46.3818 8.864C46.3818 8.58667 46.2858 8.35733 46.0938 8.176C45.9124 7.99467 45.6831 7.84533 45.4058 7.728C45.1391 7.61067 44.7551 7.47733 44.2538 7.328C43.5284 7.104 42.9364 6.88 42.4778 6.656C42.0191 6.432 41.6244 6.10133 41.2938 5.664C40.9631 5.22667 40.7978 4.656 40.7978 3.952C40.7978 2.90667 41.1764 2.09067 41.9338 1.504C42.6911 0.906666 43.6778 0.608 44.8938 0.608C46.1311 0.608 47.1284 0.906666 47.8858 1.504C48.6431 2.09067 49.0484 2.912 49.1018 3.968H46.1418C46.1204 3.60533 45.9871 3.32267 45.7418 3.12C45.4964 2.90667 45.1818 2.8 44.7977 2.8C44.4671 2.8 44.2004 2.89067 43.9978 3.072C43.7951 3.24267 43.6938 3.49333 43.6938 3.824C43.6938 4.18667 43.8644 4.46933 44.2057 4.672C44.5471 4.87467 45.0804 5.09333 45.8058 5.328C46.5311 5.57333 47.1178 5.808 47.5658 6.032C48.0244 6.256 48.4191 6.58133 48.7498 7.008C49.0804 7.43467 49.2458 7.984 49.2458 8.656C49.2458 9.296 49.0804 9.87733 48.7498 10.4C48.4298 10.9227 47.9604 11.3387 47.3418 11.648C46.7231 11.9573 45.9924 12.112 45.1498 12.112ZM53.6175 0.768V7.488C53.6175 8.16 53.7828 8.67733 54.1135 9.04C54.4442 9.40267 54.9295 9.584 55.5695 9.584C56.2095 9.584 56.7002 9.40267 57.0415 9.04C57.3828 8.67733 57.5535 8.16 57.5535 7.488V0.768H60.2895V7.472C60.2895 8.47467 60.0762 9.32267 59.6495 10.016C59.2228 10.7093 58.6468 11.232 57.9215 11.584C57.2068 11.936 56.4068 12.112 55.5215 12.112C54.6362 12.112 53.8415 11.9413 53.1375 11.6C52.4442 11.248 51.8948 10.7253 51.4895 10.032C51.0842 9.328 50.8815 8.47467 50.8815 7.472V0.768H53.6175ZM74.9308 0.768V12H72.1948V5.264L69.6828 12H67.4748L64.9468 5.248V12H62.2108V0.768H65.4427L68.5948 8.544L71.7148 0.768H74.9308ZM82.2103 12.112C81.1543 12.112 80.1836 11.8667 79.2983 11.376C78.4236 10.8853 77.7249 10.2027 77.2023 9.328C76.6902 8.44267 76.4342 7.45067 76.4342 6.352C76.4342 5.25333 76.6902 4.26667 77.2023 3.392C77.7249 2.51733 78.4236 1.83467 79.2983 1.344C80.1836 0.853333 81.1543 0.608 82.2103 0.608C83.2663 0.608 84.2316 0.853333 85.1063 1.344C85.9916 1.83467 86.6849 2.51733 87.1863 3.392C87.6983 4.26667 87.9543 5.25333 87.9543 6.352C87.9543 7.45067 87.6983 8.44267 87.1863 9.328C86.6743 10.2027 85.9809 10.8853 85.1063 11.376C84.2316 11.8667 83.2663 12.112 82.2103 12.112ZM82.2103 9.616C83.1063 9.616 83.8209 9.31733 84.3542 8.72C84.8983 8.12267 85.1703 7.33333 85.1703 6.352C85.1703 5.36 84.8983 4.57067 84.3542 3.984C83.8209 3.38667 83.1063 3.088 82.2103 3.088C81.3036 3.088 80.5783 3.38133 80.0343 3.968C79.5009 4.55467 79.2343 5.34933 79.2343 6.352C79.2343 7.344 79.5009 8.13867 80.0343 8.736C80.5783 9.32267 81.3036 9.616 82.2103 9.616ZM93.5404 12.112C92.719 12.112 91.983 11.9787 91.3324 11.712C90.6817 11.4453 90.159 11.0507 89.7644 10.528C89.3804 10.0053 89.1777 9.376 89.1564 8.64H92.0684C92.111 9.056 92.255 9.376 92.5004 9.6C92.7457 9.81333 93.0657 9.92 93.4604 9.92C93.8657 9.92 94.1857 9.82933 94.4204 9.648C94.655 9.456 94.7724 9.19467 94.7724 8.864C94.7724 8.58667 94.6764 8.35733 94.4844 8.176C94.303 7.99467 94.0737 7.84533 93.7964 7.728C93.5297 7.61067 93.1457 7.47733 92.6444 7.328C91.919 7.104 91.327 6.88 90.8684 6.656C90.4097 6.432 90.015 6.10133 89.6844 5.664C89.3537 5.22667 89.1884 4.656 89.1884 3.952C89.1884 2.90667 89.567 2.09067 90.3244 1.504C91.0817 0.906666 92.0684 0.608 93.2844 0.608C94.5217 0.608 95.519 0.906666 96.2764 1.504C97.0337 2.09067 97.439 2.912 97.4924 3.968H94.5324C94.511 3.60533 94.3777 3.32267 94.1324 3.12C93.887 2.90667 93.5724 2.8 93.1884 2.8C92.8577 2.8 92.591 2.89067 92.3884 3.072C92.1857 3.24267 92.0844 3.49333 92.0844 3.824C92.0844 4.18667 92.255 4.46933 92.5964 4.672C92.9377 4.87467 93.471 5.09333 94.1964 5.328C94.9217 5.57333 95.5084 5.808 95.9564 6.032C96.415 6.256 96.8097 6.58133 97.1404 7.008C97.471 7.43467 97.6364 7.984 97.6364 8.656C97.6364 9.296 97.471 9.87733 97.1404 10.4C96.8204 10.9227 96.351 11.3387 95.7324 11.648C95.1137 11.9573 94.383 12.112 93.5404 12.112ZM105.832 12L102.056 7.04V12H99.3201V0.768H102.056V5.696L105.8 0.768H109.016L104.664 6.272L109.176 12H105.832ZM113.212 0.768V12H110.476V0.768H113.212ZM1.22 32V17.8H6.68C8.25333 17.8 9.56667 18.12 10.62 18.76C11.6867 19.3867 12.4867 20.24 13.02 21.32C13.5667 22.3867 13.84 23.5733 13.84 24.88C13.84 26.32 13.54 27.5733 12.94 28.64C12.3533 29.7067 11.52 30.5333 10.44 31.12C9.37333 31.7067 8.12 32 6.68 32H1.22ZM9.88 24.88C9.88 23.7733 9.59333 22.8867 9.02 22.22C8.46 21.54 7.68 21.2 6.68 21.2H5.12V28.6H6.68C7.70667 28.6 8.49333 28.2467 9.04 27.54C9.6 26.8333 9.88 25.9467 9.88 24.88ZM25.6564 28.6V32H15.5364V17.8H25.4764V21.2H19.4364V23.2H24.5964V26.36H19.4364V28.6H25.6564ZM30.21 17.8L32.99 27.5L35.73 17.8H39.83L34.93 32H31.05L26.09 17.8H30.21ZM51.0275 28.6V32H40.9075V17.8H50.8475V21.2H44.8075V23.2H49.9675V26.36H44.8075V28.6H51.0275ZM52.8411 32V17.8H56.7411V28.6H63.1811V32H52.8411ZM70.7645 32.12C69.6845 32.12 68.7045 31.92 67.8245 31.52C66.9445 31.1067 66.1845 30.56 65.5445 29.88C64.9179 29.1867 64.4312 28.4133 64.0845 27.56C63.7512 26.6933 63.5845 25.8 63.5845 24.88C63.5845 23.9333 63.7645 23.0333 64.1245 22.18C64.4845 21.3267 64.9845 20.5667 65.6245 19.9C66.2779 19.22 67.0445 18.6867 67.9245 18.3C68.8179 17.9133 69.7912 17.72 70.8445 17.72C71.9245 17.72 72.9045 17.9267 73.7845 18.34C74.6645 18.74 75.4179 19.2867 76.0445 19.98C76.6712 20.6733 77.1512 21.4533 77.4845 22.32C77.8312 23.1733 78.0045 24.0533 78.0045 24.96C78.0045 25.8933 77.8245 26.7867 77.4645 27.64C77.1179 28.4933 76.6179 29.26 75.9645 29.94C75.3245 30.6067 74.5645 31.14 73.6845 31.54C72.8045 31.9267 71.8312 32.12 70.7645 32.12ZM67.5445 24.92C67.5445 25.5467 67.6579 26.1467 67.8845 26.72C68.1245 27.2933 68.4845 27.76 68.9645 28.12C69.4579 28.48 70.0712 28.66 70.8045 28.66C71.5645 28.66 72.1779 28.4733 72.6445 28.1C73.1245 27.7267 73.4779 27.2533 73.7045 26.68C73.9312 26.0933 74.0445 25.4933 74.0445 24.88C74.0445 24.24 73.9245 23.64 73.6845 23.08C73.4445 22.52 73.0845 22.0667 72.6045 21.72C72.1245 21.36 71.5179 21.18 70.7845 21.18C70.0379 21.18 69.4245 21.3667 68.9445 21.74C68.4645 22.1 68.1112 22.5667 67.8845 23.14C67.6579 23.7 67.5445 24.2933 67.5445 24.92ZM79.6575 32V17.8H85.7775C86.4708 17.8 87.1108 17.94 87.6975 18.22C88.2842 18.5 88.7908 18.88 89.2175 19.36C89.6442 19.8267 89.9708 20.3533 90.1975 20.94C90.4375 21.5267 90.5575 22.12 90.5575 22.72C90.5575 23.56 90.3575 24.3533 89.9575 25.1C89.5708 25.8467 89.0242 26.46 88.3175 26.94C87.6242 27.4067 86.8108 27.64 85.8775 27.64H83.5575V32H79.6575ZM83.5575 24.24H85.6175C85.8575 24.24 86.0775 24.1333 86.2775 23.92C86.4908 23.6933 86.5975 23.2933 86.5975 22.72C86.5975 22.1333 86.4775 21.7333 86.2375 21.52C85.9975 21.3067 85.7575 21.2 85.5175 21.2H83.5575V24.24ZM102.238 28.6V32H92.1184V17.8H102.058V21.2H96.0184V23.2H101.178V26.36H96.0184V28.6H102.238ZM104.052 32V17.8H110.572C111.265 17.8 111.905 17.94 112.492 18.22C113.079 18.5 113.585 18.88 114.012 19.36C114.439 19.8267 114.765 20.3533 114.992 20.94C115.232 21.5267 115.352 22.12 115.352 22.72C115.352 23.5333 115.172 24.3 114.812 25.02C114.452 25.74 113.952 26.3267 113.312 26.78L116.312 32H112.032L109.532 27.64H107.952V32H104.052ZM107.952 24.24H110.412C110.652 24.24 110.872 24.1067 111.072 23.84C111.285 23.5733 111.392 23.2 111.392 22.72C111.392 22.2267 111.272 21.8533 111.032 21.6C110.792 21.3333 110.552 21.2 110.312 21.2H107.952V24.24Z" fill="#262626"/>
</svg>
